<?xml version="1.0" encoding="utf-8"?>
<!-- Generator: $$$/GeneralStr/196=Adobe Illustrator 27.6.0, SVG Export Plug-In . SVG Version: 6.00 Build 0)  -->
<svg version="1.1" id="图层_1" xmlns="http://www.w3.org/2000/svg" xmlns:xlink="http://www.w3.org/1999/xlink" x="0px" y="0px"
	 viewBox="0 0 1600 900" style="enable-background:new 0 0 1600 900;" xml:space="preserve">
<style type="text/css">
	.st0{fill:#F7FAFF;}
	.st1{enable-background:new    ;}
	.st2{fill:#102A56;}
	.st3{font-family:'AdobeSongStd-Light-GBpc-EUC-H';}
	.st4{font-size:36px;}
	.st5{font-family:'ArialMT';}
	.st6{fill:#5A6A82;}
	.st7{font-family:'MicrosoftYaHei';}
	.st8{font-size:16px;}
	.st9{fill:#FFFFFF;stroke:#C8D7EF;stroke-width:2;}
	.st10{fill:#112233;}
	.st11{font-size:20px;}
	.st12{fill:#111827;stroke:#334155;stroke-width:2;}
	.st13{fill:#2F3744;}
	.st14{fill:none;stroke:#F8FAFC;stroke-width:5;stroke-dasharray:30,20;}
	.st15{fill:#60A5FA;}
	.st16{fill:#94A3B8;}
	.st17{fill:#26364D;}
	.st18{font-size:18px;}
	.st19{fill:#EAF2FF;stroke:#ABC5EF;}
	.st20{fill:#EAFAF0;stroke:#9BD0B1;}
	.st21{fill:#ECFDF3;stroke:#89D5AA;stroke-width:2;}
	.st22{font-size:12px;}
	.st23{fill:#22C55E;}
	.st24{fill:#FFFFFF;}
	.st25{font-family:'MicrosoftYaHei-Bold';}
	.st26{font-size:28px;}
	.st27{fill:#FFF1F1;stroke:#F5A2A2;stroke-width:2;}
	.st28{fill:#FFE4E6;stroke:#F5A2A2;}
	.st29{fill:#EF4444;}
</style>
<rect class="st0" width="1600" height="900"/>
<text transform="matrix(1 0 0 1 71.3281 86.7187)" class="st1"><tspan x="0" y="0" class="st2 st3 st4">使用场景</tspan><tspan x="144" y="0" class="st2 st5 st4">Mockup</tspan><tspan x="270.1" y="0" class="st2 st3 st4">：下班疲惫下的多轮高低分验证</tspan></text>
<text transform="matrix(1 0 0 1 71.3281 120.7187)" class="st6 st7 st8">同一多轮对话历史下，比较低负荷陪伴回复与高认知负荷回复对用户下一轮反应和Judge评分的影响。</text>
<rect x="70" y="170" class="st9" width="560" height="680"/>
<text transform="matrix(1 0 0 1 105 215)" class="st10 st3 st11">车内对话场景</text>
<rect x="105" y="245" class="st12" width="490" height="250"/>
<path class="st13" d="M105,495l140-250h210l140,250H105z"/>
<line class="st14" x1="350" y1="495" x2="350" y2="260"/>
<circle class="st15" cx="265" cy="370" r="28"/>
<path class="st16" d="M402.6,323h68c6.6,0,12,5.4,12,12v24c0,6.6-5.4,12-12,12h-68c-6.6,0-12-5.4-12-12v-24
	C390.6,328.4,396,323,402.6,323z"/>
<text transform="matrix(1 0 0 1 125 535)" class="st17 st7 st18">场景初始化</text>
<text transform="matrix(1 0 0 1 130 566)" class="st6 st7 st8">风险等级：low</text>
<text transform="matrix(1 0 0 1 130 594)" class="st6 st7 st8">驾驶负荷：low</text>
<text transform="matrix(1 0 0 1 130 622)" class="st6 st7 st8">用户初始状态：疲惫 / medium</text>
<text transform="matrix(1 0 0 1 130 650)" class="st6 st7 st8">披露意愿：low</text>
<text transform="matrix(1 0 0 1 125 705)" class="st17 st7 st18">多轮对话历史</text>
<rect x="125" y="725" class="st19" width="440" height="42"/>
<text transform="matrix(1 0 0 1 145 752)" class="st6 st7 st8">U1：刚下班，脑子已经转不动了。</text>
<rect x="125" y="773" class="st20" width="440" height="42"/>
<text transform="matrix(1 0 0 1 145 800)" class="st6 st7 st8">R1：今天消耗挺大的，路上少想一点。</text>
<rect x="675" y="170" class="st21" width="390" height="680"/>
<text transform="matrix(1 0 0 1 710 215)" class="st10 st3 st22">高分回复路径</text>
<text transform="matrix(1 0 0 1 710 260)" class="st17 st7 st18">用户当前轮</text>
<rect x="710" y="280" class="st19" width="320" height="70"/>
<text transform="matrix(1 0 0 1 730 323)" class="st6 st7 st8">一句话都不想多说。</text>
<text transform="matrix(1 0 0 1 710 385)" class="st17 st7 st18">NOMI候选回复</text>
<rect x="710" y="405" class="st20" width="320" height="95"/>
<text transform="matrix(1 0 0 1 730 440)" class="st6 st7 st8">好，那我少说点。</text>
<text transform="matrix(1 0 0 1 730 470)" class="st6 st7 st8">给你放点轻一点的音乐。</text>
<text transform="matrix(1 0 0 1 710 540)" class="st17 st7 st18">用户下一轮反应</text>
<rect x="710" y="560" class="st19" width="320" height="70"/>
<text transform="matrix(1 0 0 1 730 603)" class="st6 st7 st8">嗯，放点轻的吧。</text>
<text transform="matrix(1 0 0 1 710 675)" class="st17 st7 st18">Judge结论</text>
<text transform="matrix(1 0 0 1 730 708)" class="st6 st7 st8">低负荷陪伴 / 节奏收束 / 状态稳定</text>
<path class="st23" d="M753,750h224c9.9,0,18,8.1,18,18v26c0,9.9-8.1,18-18,18H753c-9.9,0-18-8.1-18-18v-26
	C735,758.1,743.1,750,753,750z"/>
<text transform="matrix(1 0 0 1 797.3018 790)" class="st24 st25 st26">总分 95.0</text>
<rect x="1110" y="170" class="st27" width="390" height="680"/>
<text transform="matrix(1 0 0 1 1145 215)" class="st10 st3 st22">低分回复路径</text>
<text transform="matrix(1 0 0 1 1145 260)" class="st17 st7 st18">用户当前轮</text>
<rect x="1145" y="280" class="st19" width="320" height="70"/>
<text transform="matrix(1 0 0 1 1165 323)" class="st6 st7 st8">一句话都不想多说。</text>
<text transform="matrix(1 0 0 1 1145 385)" class="st17 st7 st18">NOMI候选回复</text>
<rect x="1145" y="405" class="st28" width="320" height="110"/>
<text transform="matrix(1 0 0 1 1165 440)" class="st6 st7 st8">我们可以从认知负荷、</text>
<text transform="matrix(1 0 0 1 1165 470)" class="st6 st7 st8">情绪耗竭和职业倦怠</text>
<text transform="matrix(1 0 0 1 1165 500)" class="st6 st7 st8">三个方面详细分析。</text>
<text transform="matrix(1 0 0 1 1145 555)" class="st17 st7 st18">用户下一轮反应</text>
<rect x="1145" y="575" class="st19" width="320" height="70"/>
<text transform="matrix(1 0 0 1 1165 618)" class="st6 st7 st8">别分析了，我现在听这些更累。</text>
<text transform="matrix(1 0 0 1 1145 685)" class="st17 st7 st18">Judge结论</text>
<text transform="matrix(1 0 0 1 1165 718)" class="st6 st7 st8">高认知负荷 / 忽视拒绝信号 / 状态恶化</text>
<path class="st29" d="M1188,750h224c9.9,0,18,8.1,18,18v26c0,9.9-8.1,18-18,18h-224c-9.9,0-18-8.1-18-18v-26
	C1170,758.1,1178.1,750,1188,750z"/>
<text transform="matrix(1 0 0 1 1235.0784 790)" class="st24 st25 st26">总分 18.2</text>
</svg>
